HIERARCHY
ROOT Pelvis
{
	OFFSET 0.000000 0.000000 0.000000
	CHANNELS 6 Xposition Yposition Zposition Xrotation Yrotation Zrotation
	JOINT LeftUpLeg_virtual
	{
		OFFSET 0.000000 0.000000 0.000000
		CHANNELS 3 Xrotation Yrotation Zrotation
		JOINT LeftUpLeg
		{
			OFFSET 18.735201 -5.666702 -4.541200
			CHANNELS 3 Xrotation Yrotation Zrotation
			JOINT LeftLeg
			{
				OFFSET -0.021200 -31.938179 0.493100
				CHANNELS 3 Xrotation Yrotation Zrotation
				JOINT LeftFoot
				{
					OFFSET 0.021200 -31.938179 -4.336299
					CHANNELS 3 Xrotation Yrotation Zrotation
					JOINT LeftToeBase
					{
						OFFSET 0.943001 -26.722000 15.023500
						CHANNELS 3 Xrotation Yrotation Zrotation
						End Site
						{
							OFFSET 0 0 0
						}
					}
				}
			}
		}
	}
	JOINT RightUpLeg_virtual
	{
		OFFSET 0.000000 0.000000 0.000000
		CHANNELS 3 Xrotation Yrotation Zrotation
		JOINT RightUpLeg
		{
			OFFSET -18.735201 -5.666702 -4.541200
			CHANNELS 3 Xrotation Yrotation Zrotation
			JOINT RightLeg
			{
				OFFSET 0.018946 -31.938133 0.493100
				CHANNELS 3 Xrotation Yrotation Zrotation
				JOINT RightFoot
				{
					OFFSET -0.018946 -31.938126 -4.336299
					CHANNELS 3 Xrotation Yrotation Zrotation
					JOINT RightToeBase
					{
						OFFSET -0.943001 -26.722004 15.023500
						CHANNELS 3 Xrotation Yrotation Zrotation
						End Site
						{
							OFFSET 0 0 0
						}
					}
				}
			}
		}
	}
	JOINT Hips_virtual
	{
		OFFSET 0.000000 0.000000 0.000000
		CHANNELS 3 Xrotation Yrotation Zrotation
		JOINT Hips
		{
			OFFSET -0.000000 -0.000000 -0.000000
			CHANNELS 3 Xrotation Yrotation Zrotation
			JOINT Spine
			{
				OFFSET 0.000000 10.199997 -0.299500
				CHANNELS 3 Xrotation Yrotation Zrotation
				JOINT Spine1
				{
					OFFSET 0.000000 11.900002 -1.516600
					CHANNELS 3 Xrotation Yrotation Zrotation
					JOINT Spine2
					{
						OFFSET 0.000000 13.600006 -2.842500
						CHANNELS 3 Xrotation Yrotation Zrotation
						JOINT Neck_virtual
						{
							OFFSET 0.000000 0.000000 0.000000
							CHANNELS 3 Xrotation Yrotation Zrotation
							JOINT Neck
							{
								OFFSET 0.000000 9.624100 -2.890100
								CHANNELS 3 Xrotation Yrotation Zrotation
								JOINT Head
								{
									OFFSET 0.000000 14.068802 -1.351900
									CHANNELS 3 Xrotation Yrotation Zrotation
									End Site
									{
										OFFSET 0 0 0
									}
								}
							}
						}
						JOINT LeftShoulder_virtual
						{
							OFFSET 0.000000 0.000000 0.000000
							CHANNELS 3 Xrotation Yrotation Zrotation
							JOINT LeftShoulder
							{
								OFFSET 15.263000 10.923401 -0.547700
								CHANNELS 3 Xrotation Yrotation Zrotation
								JOINT LeftArm
								{
									OFFSET 25.438599 -2.830597 -13.032500
									CHANNELS 3 Xrotation Yrotation Zrotation
									JOINT LeftForeArm
									{
										OFFSET 29.960503 0.000000 0.000000
										CHANNELS 3 Xrotation Yrotation Zrotation
										JOINT LeftHand
										{
											OFFSET 27.849251 0.000000 0.000000
											CHANNELS 3 Xrotation Yrotation Zrotation
											End Site
											{
												OFFSET 0 0 0
											}
										}
									}
								}
							}
						}
						JOINT RightShoulder_virtual
						{
							OFFSET 0.000000 0.000000 0.000000
							CHANNELS 3 Xrotation Yrotation Zrotation
							JOINT RightShoulder
							{
								OFFSET -15.263000 10.923401 -0.547700
								CHANNELS 3 Xrotation Yrotation Zrotation
								JOINT RightArm
								{
									OFFSET -25.438599 -2.830597 -13.032500
									CHANNELS 3 Xrotation Yrotation Zrotation
									JOINT RightForeArm
									{
										OFFSET -29.960503 0.000000 0.000000
										CHANNELS 3 Xrotation Yrotation Zrotation
										JOINT RightHand
										{
											OFFSET -27.849251 0.000000 0.000000
											CHANNELS 3 Xrotation Yrotation Zrotation
											End Site
											{
												OFFSET 0 0 0
											}
										}
									}
								}
							}
						}
					}
				}
			}
		}
	}
}
MOTION
Frames: 12
Frame Time: 0.03333333
0.762257 95.253525 4.341942 0.000000 0.000000 0.000000 -4.056679 6.146969 -1.685509 -6.312014 9.856978 12.843582 17.335804 -7.008988 0.228861 -8.257301 1.149034 -8.069707 0.000000 0.000000 0.000000 -4.056679 6.146969 -1.685509 -3.362509 -5.894880 0.951257 12.479165 3.447877 -0.564725 -4.920987 -0.034566 0.670871 0.000000 0.000000 0.000000 -4.056679 6.146969 -1.685509 0.000000 0.000000 0.000000 4.902932 -0.340364 1.141226 5.814413 -0.121248 1.891503 0.000000 0.000000 0.000000 -4.300226 -0.608020 -1.115062 0.268319 -0.226365 0.191249 0.000000 0.000000 0.000000 -4.300226 -0.608020 -1.115062 1.687379 -7.781276 -3.495010 -0.671930 -2.004020 -76.954225 6.346059 -10.905879 1.751779 0.000000 0.000000 0.000000 -4.300226 -0.608020 -1.115062 2.088909 10.213785 4.097141 1.436097 3.709010 75.271806 15.720264 15.338542 -4.555621 0.000000 0.000000 0.000000 
0.727993 95.223404 4.413246 0.000000 0.000000 0.000000 -3.952038 5.749104 -1.744145 -6.260596 9.987242 12.942710 17.425660 -6.767523 0.178357 -8.479961 1.168013 -8.112751 0.000000 0.000000 0.000000 -3.952038 5.749104 -1.744145 -3.650162 -5.916556 0.933417 12.675439 3.942571 -0.459782 -4.931218 -0.025562 0.539594 0.000000 0.000000 0.000000 -3.952038 5.749104 -1.744145 0.000000 0.000000 0.000000 5.415377 -0.319450 1.121624 5.522213 -0.132479 1.904806 0.000000 0.000000 0.000000 -4.333486 -0.594682 -1.023816 0.248128 -0.210094 0.188682 0.000000 0.000000 0.000000 -4.333486 -0.594682 -1.023816 1.620308 -7.552169 -3.860862 -0.751190 -2.300622 -76.607142 6.273866 -11.004188 1.438891 0.000000 0.000000 0.000000 -4.333486 -0.594682 -1.023816 1.990163 10.065641 4.383188 2.016828 4.166791 74.641919 15.644910 15.971460 -4.499027 0.000000 0.000000 0.000000 
0.654626 95.175400 4.502417 0.000000 0.000000 0.000000 -3.787827 5.334203 -1.847675 -6.324596 10.046425 13.094343 17.662190 -6.453067 0.185419 -8.783179 1.202276 -8.229160 0.000000 0.000000 0.000000 -3.787827 5.334203 -1.847675 -3.954750 -5.884841 0.981366 12.863007 4.248986 -0.310585 -4.970976 -0.015716 0.363813 0.000000 0.000000 0.000000 -3.787827 5.334203 -1.847675 0.000000 0.000000 0.000000 5.961958 -0.330090 1.150431 5.138955 -0.169619 1.922761 0.000000 0.000000 0.000000 -4.445558 -0.615047 -0.923940 0.280283 -0.182710 0.179015 0.000000 0.000000 0.000000 -4.445558 -0.615047 -0.923940 1.548017 -7.340915 -4.191912 -0.740684 -2.457495 -76.268638 6.412176 -11.186914 1.166559 0.000000 0.000000 0.000000 -4.445558 -0.615047 -0.923940 1.962680 9.891856 4.427145 2.263375 4.863581 74.267898 15.700836 15.892038 -4.313926 0.000000 0.000000 0.000000 
0.555005 95.123711 4.611586 0.000000 0.000000 0.000000 -3.656946 4.825889 -1.929333 -6.257680 10.127826 13.221873 17.823906 -6.041958 0.216173 -9.090604 1.245391 -8.401650 0.000000 0.000000 0.000000 -3.656946 4.825889 -1.929333 -4.335470 -5.829088 1.043653 13.226086 4.668714 -0.187942 -5.076480 -0.001181 0.122235 0.000000 0.000000 0.000000 -3.656946 4.825889 -1.929333 0.000000 0.000001 0.000000 6.553324 -0.326643 1.148914 4.747527 -0.211358 1.960678 0.000000 0.000000 0.000000 -4.554505 -0.640236 -0.800481 0.312966 -0.146477 0.177533 0.000000 0.000000 0.000000 -4.554505 -0.640236 -0.800481 1.469708 -7.170368 -4.588168 -0.740860 -2.579954 -75.869031 6.765162 -11.226870 0.911219 0.000000 0.000000 0.000000 -4.554505 -0.640236 -0.800481 1.897159 9.753004 4.574659 2.761360 5.469271 73.688165 15.327296 16.216713 -4.177222 0.000000 0.000000 0.000000 
0.408723 95.063896 4.754074 0.000000 0.000000 0.000000 -3.472256 4.301924 -1.994232 -6.179196 10.266747 13.383231 17.880651 -5.670253 0.217549 -9.365600 1.291349 -8.604983 0.000000 0.000000 0.000000 -3.472256 4.301924 -1.994232 -4.908719 -5.714099 1.169191 13.868611 4.993232 -0.120529 -5.265304 0.026698 -0.200975 0.000000 0.000000 0.000000 -3.472256 4.301924 -1.994232 0.000000 0.000000 0.000000 6.991909 -0.356511 1.122826 4.482986 -0.270838 1.988609 0.000000 0.000000 0.000000 -4.526551 -0.681911 -0.685798 0.274702 -0.110531 0.201348 0.000000 0.000000 0.000000 -4.526551 -0.681911 -0.685798 1.399210 -7.017516 -4.892700 -0.714866 -2.913300 -75.547056 6.798840 -11.543316 0.677547 0.000000 0.000000 0.000000 -4.526551 -0.681911 -0.685798 1.805813 9.500911 4.901582 3.450762 6.546488 72.839958 15.124607 16.856108 -4.265080 0.000000 0.000000 0.000000 
0.197981 94.998695 4.932091 0.000000 0.000000 0.000000 -3.251595 3.668630 -2.090282 -6.052903 10.412997 13.600584 17.890757 -5.215334 0.247945 -9.666950 1.353950 -8.899382 0.000000 0.000000 0.000000 -3.251595 3.668630 -2.090282 -5.477030 -5.632397 1.341605 14.413362 5.487233 0.013367 -5.384966 0.063080 -0.593106 0.000000 0.000000 0.000000 -3.251595 3.668630 -2.090282 0.000000 0.000000 0.000000 7.368833 -0.433046 1.163882 4.195671 -0.356207 1.967418 0.000000 0.000000 0.000000 -4.512926 -0.746790 -0.618005 0.289772 -0.066857 0.241436 0.000000 0.000000 0.000000 -4.512926 -0.746790 -0.618005 1.330238 -7.014776 -5.058159 -0.717619 -2.720699 -75.275201 7.074258 -11.605011 0.452601 0.000000 0.000000 0.000000 -4.512926 -0.746790 -0.618005 1.705161 9.372398 5.363777 4.228288 7.755408 71.923354 14.944790 17.453712 -4.429948 0.000000 0.000000 0.000000 
-0.100057 94.927788 5.160707 0.000000 0.000000 0.000000 -3.010963 2.896299 -2.174342 -5.747145 10.577074 13.826927 17.701400 -4.603910 0.309202 -9.936166 1.435640 -9.323767 0.000000 0.000000 0.000000 -3.010963 2.896299 -2.174342 -6.034816 -5.464098 1.636212 14.956929 5.935463 0.051335 -5.555480 0.107714 -1.022465 0.000000 0.000000 0.000000 -3.010963 2.896299 -2.174342 0.000000 0.000000 0.000000 7.744694 -0.518539 1.121420 3.840521 -0.467055 2.011603 0.000000 0.000000 0.000000 -4.557649 -0.839309 -0.482462 0.323935 -0.008754 0.274105 0.000000 0.000000 0.000000 -4.557649 -0.839309 -0.482462 1.271124 -6.964119 -5.284757 -0.540963 -2.575035 -74.951361 7.304057 -11.784219 0.216705 0.000000 0.000000 0.000000 -4.557649 -0.839309 -0.482462 1.626680 9.215359 5.694088 4.843428 8.614486 71.217686 14.997697 17.930652 -4.591862 0.000000 0.000000 0.000000 
-0.471319 94.844948 5.426003 0.000000 0.000000 0.000000 -2.702250 1.991702 -2.250442 -5.328402 10.710666 14.028703 17.357963 -3.765361 0.421785 -10.180330 1.535511 -9.876726 0.000000 0.000000 0.000000 -2.702250 1.991702 -2.250442 -6.639886 -5.246818 1.989366 15.477134 6.480538 0.079163 -5.744337 0.162034 -1.497844 0.000000 0.000000 0.000000 -2.702250 1.991702 -2.250442 0.000000 0.000000 0.000000 7.965690 -0.626496 1.068808 3.511773 -0.597220 2.053654 0.000000 0.000000 0.000000 -4.568453 -0.951494 -0.347463 0.355229 0.054394 0.289447 0.000000 0.000000 0.000000 -4.568453 -0.951494 -0.347463 1.201297 -6.798044 -5.580292 -0.408218 -2.466888 -74.503102 7.430862 -11.694292 -0.124044 0.000000 0.000000 0.000000 -4.568453 -0.951494 -0.347463 1.561662 9.046405 6.006820 5.553024 10.016658 70.513165 14.717371 18.274161 -4.669097 0.000000 0.000000 0.000000 
-0.941443 94.753510 5.743015 0.000000 0.000000 0.000000 -2.516442 0.780287 -2.327624 -4.497592 10.870736 14.216320 16.821378 -2.634211 0.600999 -10.452308 1.668746 -10.602533 0.000000 0.000000 0.000000 -2.516442 0.780287 -2.327624 -7.196271 -5.019787 2.386921 16.075931 7.333734 0.123840 -5.912450 0.224008 -2.013984 0.000000 0.000000 0.000000 -2.516442 0.780287 -2.327624 0.000000 0.000000 0.000000 8.214670 -0.692571 0.963175 3.193795 -0.713226 2.160274 0.000000 0.000000 0.000000 -4.561475 -1.049622 -0.144471 0.402897 0.139531 0.267005 0.000000 0.000000 0.000000 -4.561475 -1.049622 -0.144471 1.129406 -6.435702 -6.041999 -0.121720 -2.136052 -74.015229 7.915108 -11.987326 -0.288449 0.000000 0.000000 0.000000 -4.561475 -1.049622 -0.144471 1.498375 8.841921 6.211505 5.833133 10.524236 69.930229 14.372834 18.369241 -4.384856 0.000000 0.000000 0.000000 
-1.535867 94.605804 6.115360 0.000000 0.000000 0.000000 -2.076492 -0.709114 -2.449289 -3.710566 10.795643 14.402297 16.292380 -0.946538 0.892782 -10.802568 1.853194 -11.580336 0.000000 0.000000 0.000000 -2.076492 -0.709114 -2.449289 -8.058250 -4.522043 3.007839 16.763096 8.059472 0.119905 -6.133352 0.303271 -2.634283 0.000000 0.000000 0.000000 -2.076492 -0.709114 -2.449289 0.000000 0.000000 0.000000 8.230438 -0.738327 0.896891 2.854261 -0.831132 2.259772 0.000000 0.000000 0.000000 -4.571455 -1.146583 0.052138 0.437593 0.235671 0.266628 0.000000 0.000000 0.000000 -4.571455 -1.146583 0.052138 1.070776 -6.102831 -6.470879 -0.290225 -2.074711 -73.440899 8.065581 -11.148102 -0.847571 0.000000 0.000000 0.000000 -4.571455 -1.146583 0.052138 1.428594 8.717272 6.424762 6.290088 11.026387 69.412474 14.374384 18.597987 -4.245113 0.000000 0.000000 0.000000 
-2.212891 94.426628 6.472698 0.000000 0.000000 0.000000 -1.791717 -2.003343 -2.518186 -2.788560 10.368902 14.582056 15.825565 0.891792 1.164901 -11.100938 2.047631 -12.635892 0.000000 0.000000 0.000000 -1.791717 -2.003343 -2.518186 -8.807014 -4.144216 3.567045 17.679747 8.749822 0.246403 -6.556634 0.407469 -3.364486 0.000000 0.000000 0.000000 -1.791717 -2.003343 -2.518186 0.000000 0.000000 0.000000 8.344548 -0.910285 0.789327 2.587105 -1.057610 2.319185 0.000000 0.000000 0.000000 -4.502535 -1.345521 0.208554 0.392604 0.352498 0.309849 0.000000 0.000000 0.000000 -4.502535 -1.345521 0.208554 1.030760 -5.722938 -6.713559 -0.013478 -1.914065 -72.911259 7.973483 -11.369713 -1.173817 0.000000 0.000000 0.000000 -4.502535 -1.345521 0.208554 1.352655 8.518349 6.829787 6.535400 11.611548 68.787812 14.334042 18.690809 -3.945250 0.000000 0.000000 0.000000 
-2.966639 94.145935 6.842941 0.000000 0.000000 0.000000 -1.137309 -3.380996 -2.619265 -2.320352 9.385949 14.870058 15.870359 3.314941 1.366627 -11.609973 2.292025 -13.832219 0.000000 0.000000 0.000000 -1.137309 -3.380996 -2.619265 -10.145175 -3.552648 4.171767 18.875238 9.302777 0.464674 -6.971420 0.485910 -3.933502 0.000000 0.000000 0.000000 -1.137309 -3.380996 -2.619265 0.000000 0.000000 0.000000 7.827124 -1.059391 1.010370 2.493862 -1.193389 2.114701 0.000000 0.000000 0.000000 -4.265086 -1.456970 0.098447 0.328197 0.442892 0.401100 0.000000 0.000000 0.000000 -4.265086 -1.456970 0.098447 0.995947 -6.054692 -6.537107 0.143622 -1.647867 -72.513509 7.559224 -11.435489 -1.534272 0.000000 0.000000 0.000000 -4.265086 -1.456970 0.098447 1.242539 7.885002 7.777958 7.041146 12.271032 67.752471 14.350668 19.266888 -3.770727 0.000000 0.000000 0.000000 
